<svg viewBox="0 0 48 48" width="900" height="900"
xmlns="http://www.w3.org/2000/svg" xmlns:xlink="http://www.w3.org/1999/xlink"
stroke="#999999"
stroke-width="1"
fill-opacity="0.5">
	<rect id="_0afw7lf1" x="0" y="0" width="48" height="48" rx="0" ry="0" stroke="None" stroke-width="1" fill="#efefef" />
	<line id="_2ehrm0bm" x1="0" y1="0" x2="0" y2="48" stroke="#d3d3d3" stroke-width="0.048"/>
	<line id="_ksfqftwd" x1="1" y1="0" x2="1" y2="48" stroke="#d3d3d3" stroke-width="0.048"/>
	<line id="_rmnj666b" x1="2" y1="0" x2="2" y2="48" stroke="#d3d3d3" stroke-width="0.048"/>
	<line id="_a9kh0yam" x1="3" y1="0" x2="3" y2="48" stroke="#d3d3d3" stroke-width="0.048"/>
	<line id="_7wnqf0ff" x1="4" y1="0" x2="4" y2="48" stroke="#d3d3d3" stroke-width="0.048"/>
	<line id="_kv2qkf5l" x1="5" y1="0" x2="5" y2="48" stroke="#d3d3d3" stroke-width="0.048"/>
	<line id="_pvg4di6q" x1="6" y1="0" x2="6" y2="48" stroke="#d3d3d3" stroke-width="0.048"/>
	<line id="_yp7bccdn" x1="7" y1="0" x2="7" y2="48" stroke="#d3d3d3" stroke-width="0.048"/>
	<line id="_we9oymu0" x1="8" y1="0" x2="8" y2="48" stroke="#d3d3d3" stroke-width="0.048"/>
	<line id="_98sleckd" x1="9" y1="0" x2="9" y2="48" stroke="#d3d3d3" stroke-width="0.048"/>
	<line id="_8wnx5zii" x1="10" y1="0" x2="10" y2="48" stroke="#d3d3d3" stroke-width="0.048"/>
	<line id="_venimnr0" x1="11" y1="0" x2="11" y2="48" stroke="#d3d3d3" stroke-width="0.048"/>
	<line id="_ozeicl0n" x1="12" y1="0" x2="12" y2="48" stroke="#d3d3d3" stroke-width="0.048"/>
	<line id="_nwvxours" x1="13" y1="0" x2="13" y2="48" stroke="#d3d3d3" stroke-width="0.048"/>
	<line id="_8oicbmmj" x1="14" y1="0" x2="14" y2="48" stroke="#d3d3d3" stroke-width="0.048"/>
	<line id="_r55kd7mw" x1="15" y1="0" x2="15" y2="48" stroke="#d3d3d3" stroke-width="0.048"/>
	<line id="_il6lzenq" x1="16" y1="0" x2="16" y2="48" stroke="#d3d3d3" stroke-width="0.048"/>
	<line id="_mmv9wt6j" x1="17" y1="0" x2="17" y2="48" stroke="#d3d3d3" stroke-width="0.048"/>
	<line id="_hr6dwrie" x1="18" y1="0" x2="18" y2="48" stroke="#d3d3d3" stroke-width="0.048"/>
	<line id="_yk8zzxdu" x1="19" y1="0" x2="19" y2="48" stroke="#d3d3d3" stroke-width="0.048"/>
	<line id="_i9zxmvdf" x1="20" y1="0" x2="20" y2="48" stroke="#d3d3d3" stroke-width="0.048"/>
	<line id="_my74mygy" x1="21" y1="0" x2="21" y2="48" stroke="#d3d3d3" stroke-width="0.048"/>
	<line id="_7kneg9y9" x1="22" y1="0" x2="22" y2="48" stroke="#d3d3d3" stroke-width="0.048"/>
	<line id="_lslrxacq" x1="23" y1="0" x2="23" y2="48" stroke="#d3d3d3" stroke-width="0.048"/>
	<line id="_tmm3ewv5" x1="24" y1="0" x2="24" y2="48" stroke="#d3d3d3" stroke-width="0.048"/>
	<line id="_apoyikr7" x1="25" y1="0" x2="25" y2="48" stroke="#d3d3d3" stroke-width="0.048"/>
	<line id="_3orbzjsp" x1="26" y1="0" x2="26" y2="48" stroke="#d3d3d3" stroke-width="0.048"/>
	<line id="_ngqgkosb" x1="27" y1="0" x2="27" y2="48" stroke="#d3d3d3" stroke-width="0.048"/>
	<line id="_n8kqy94r" x1="28" y1="0" x2="28" y2="48" stroke="#d3d3d3" stroke-width="0.048"/>
	<line id="_wg5fybri" x1="29" y1="0" x2="29" y2="48" stroke="#d3d3d3" stroke-width="0.048"/>
	<line id="_mvmd2hi5" x1="30" y1="0" x2="30" y2="48" stroke="#d3d3d3" stroke-width="0.048"/>
	<line id="_aeriwajw" x1="31" y1="0" x2="31" y2="48" stroke="#d3d3d3" stroke-width="0.048"/>
	<line id="_fmervrua" x1="32" y1="0" x2="32" y2="48" stroke="#d3d3d3" stroke-width="0.048"/>
	<line id="_h3wbmn3k" x1="33" y1="0" x2="33" y2="48" stroke="#d3d3d3" stroke-width="0.048"/>
	<line id="_n8ji6jlc" x1="34" y1="0" x2="34" y2="48" stroke="#d3d3d3" stroke-width="0.048"/>
	<line id="_f1c7ebny" x1="35" y1="0" x2="35" y2="48" stroke="#d3d3d3" stroke-width="0.048"/>
	<line id="_chdeoetz" x1="36" y1="0" x2="36" y2="48" stroke="#d3d3d3" stroke-width="0.048"/>
	<line id="_xro3vwja" x1="37" y1="0" x2="37" y2="48" stroke="#d3d3d3" stroke-width="0.048"/>
	<line id="_dtz9ttbb" x1="38" y1="0" x2="38" y2="48" stroke="#d3d3d3" stroke-width="0.048"/>
	<line id="_mvlhdsn8" x1="39" y1="0" x2="39" y2="48" stroke="#d3d3d3" stroke-width="0.048"/>
	<line id="_ralz0sru" x1="40" y1="0" x2="40" y2="48" stroke="#d3d3d3" stroke-width="0.048"/>
	<line id="_vuqrzamx" x1="41" y1="0" x2="41" y2="48" stroke="#d3d3d3" stroke-width="0.048"/>
	<line id="_7oapz424" x1="42" y1="0" x2="42" y2="48" stroke="#d3d3d3" stroke-width="0.048"/>
	<line id="_pdka4exd" x1="43" y1="0" x2="43" y2="48" stroke="#d3d3d3" stroke-width="0.048"/>
	<line id="_k5z91yav" x1="44" y1="0" x2="44" y2="48" stroke="#d3d3d3" stroke-width="0.048"/>
	<line id="_yh3o1h1m" x1="45" y1="0" x2="45" y2="48" stroke="#d3d3d3" stroke-width="0.048"/>
	<line id="_bib9g1ve" x1="46" y1="0" x2="46" y2="48" stroke="#d3d3d3" stroke-width="0.048"/>
	<line id="_fkn95rt0" x1="47" y1="0" x2="47" y2="48" stroke="#d3d3d3" stroke-width="0.048"/>
	<line id="_zcih2hf8" x1="48" y1="0" x2="48" y2="48" stroke="#d3d3d3" stroke-width="0.048"/>
	<line id="_ohpzaja4" x1="0" y1="0" x2="48" y2="0" stroke="#d3d3d3" stroke-width="0.048"/>
	<line id="_wao7a1sn" x1="0" y1="1" x2="48" y2="1" stroke="#d3d3d3" stroke-width="0.048"/>
	<line id="_sy8gzvzv" x1="0" y1="2" x2="48" y2="2" stroke="#d3d3d3" stroke-width="0.048"/>
	<line id="_rbgypoyj" x1="0" y1="3" x2="48" y2="3" stroke="#d3d3d3" stroke-width="0.048"/>
	<line id="_vh1jjjbs" x1="0" y1="4" x2="48" y2="4" stroke="#d3d3d3" stroke-width="0.048"/>
	<line id="_q4ww6phg" x1="0" y1="5" x2="48" y2="5" stroke="#d3d3d3" stroke-width="0.048"/>
	<line id="_sxgtexqf" x1="0" y1="6" x2="48" y2="6" stroke="#d3d3d3" stroke-width="0.048"/>
	<line id="_ilcvb2zi" x1="0" y1="7" x2="48" y2="7" stroke="#d3d3d3" stroke-width="0.048"/>
	<line id="_stsi90jp" x1="0" y1="8" x2="48" y2="8" stroke="#d3d3d3" stroke-width="0.048"/>
	<line id="_zmecum7v" x1="0" y1="9" x2="48" y2="9" stroke="#d3d3d3" stroke-width="0.048"/>
	<line id="_zitljaud" x1="0" y1="10" x2="48" y2="10" stroke="#d3d3d3" stroke-width="0.048"/>
	<line id="_9ernode0" x1="0" y1="11" x2="48" y2="11" stroke="#d3d3d3" stroke-width="0.048"/>
	<line id="_9ddysaob" x1="0" y1="12" x2="48" y2="12" stroke="#d3d3d3" stroke-width="0.048"/>
	<line id="_v5foc7en" x1="0" y1="13" x2="48" y2="13" stroke="#d3d3d3" stroke-width="0.048"/>
	<line id="_yboc30pb" x1="0" y1="14" x2="48" y2="14" stroke="#d3d3d3" stroke-width="0.048"/>
	<line id="_dqznjgad" x1="0" y1="15" x2="48" y2="15" stroke="#d3d3d3" stroke-width="0.048"/>
	<line id="_qasxcith" x1="0" y1="16" x2="48" y2="16" stroke="#d3d3d3" stroke-width="0.048"/>
	<line id="_s0xduvpx" x1="0" y1="17" x2="48" y2="17" stroke="#d3d3d3" stroke-width="0.048"/>
	<line id="_mh1hst4r" x1="0" y1="18" x2="48" y2="18" stroke="#d3d3d3" stroke-width="0.048"/>
	<line id="_m8x7m1by" x1="0" y1="19" x2="48" y2="19" stroke="#d3d3d3" stroke-width="0.048"/>
	<line id="_bowpuyvx" x1="0" y1="20" x2="48" y2="20" stroke="#d3d3d3" stroke-width="0.048"/>
	<line id="_n28tgxzp" x1="0" y1="21" x2="48" y2="21" stroke="#d3d3d3" stroke-width="0.048"/>
	<line id="_jnyvidkf" x1="0" y1="22" x2="48" y2="22" stroke="#d3d3d3" stroke-width="0.048"/>
	<line id="_yegey5mp" x1="0" y1="23" x2="48" y2="23" stroke="#d3d3d3" stroke-width="0.048"/>
	<line id="_ilz4ncio" x1="0" y1="24" x2="48" y2="24" stroke="#d3d3d3" stroke-width="0.048"/>
	<line id="_c5bxmf2g" x1="0" y1="25" x2="48" y2="25" stroke="#d3d3d3" stroke-width="0.048"/>
	<line id="_mcr6mpid" x1="0" y1="26" x2="48" y2="26" stroke="#d3d3d3" stroke-width="0.048"/>
	<line id="_nuf0vmpf" x1="0" y1="27" x2="48" y2="27" stroke="#d3d3d3" stroke-width="0.048"/>
	<line id="_dbnnxuzo" x1="0" y1="28" x2="48" y2="28" stroke="#d3d3d3" stroke-width="0.048"/>
	<line id="_hlsvz1sw" x1="0" y1="29" x2="48" y2="29" stroke="#d3d3d3" stroke-width="0.048"/>
	<line id="_4jnsokpv" x1="0" y1="30" x2="48" y2="30" stroke="#d3d3d3" stroke-width="0.048"/>
	<line id="_wiaydzyg" x1="0" y1="31" x2="48" y2="31" stroke="#d3d3d3" stroke-width="0.048"/>
	<line id="_c6x3ifsv" x1="0" y1="32" x2="48" y2="32" stroke="#d3d3d3" stroke-width="0.048"/>
	<line id="_cx7shswh" x1="0" y1="33" x2="48" y2="33" stroke="#d3d3d3" stroke-width="0.048"/>
	<line id="_scfuloqr" x1="0" y1="34" x2="48" y2="34" stroke="#d3d3d3" stroke-width="0.048"/>
	<line id="_waaqjyhr" x1="0" y1="35" x2="48" y2="35" stroke="#d3d3d3" stroke-width="0.048"/>
	<line id="_wlv3gepx" x1="0" y1="36" x2="48" y2="36" stroke="#d3d3d3" stroke-width="0.048"/>
	<line id="_1zwtzwfs" x1="0" y1="37" x2="48" y2="37" stroke="#d3d3d3" stroke-width="0.048"/>
	<line id="_5bjtcxex" x1="0" y1="38" x2="48" y2="38" stroke="#d3d3d3" stroke-width="0.048"/>
	<line id="_6wqgx3qk" x1="0" y1="39" x2="48" y2="39" stroke="#d3d3d3" stroke-width="0.048"/>
	<line id="_vhgf6an6" x1="0" y1="40" x2="48" y2="40" stroke="#d3d3d3" stroke-width="0.048"/>
	<line id="_m0enkuwv" x1="0" y1="41" x2="48" y2="41" stroke="#d3d3d3" stroke-width="0.048"/>
	<line id="_j6rcfn25" x1="0" y1="42" x2="48" y2="42" stroke="#d3d3d3" stroke-width="0.048"/>
	<line id="_btzjddwi" x1="0" y1="43" x2="48" y2="43" stroke="#d3d3d3" stroke-width="0.048"/>
	<line id="_hbj426dz" x1="0" y1="44" x2="48" y2="44" stroke="#d3d3d3" stroke-width="0.048"/>
	<line id="_qurtpl0t" x1="0" y1="45" x2="48" y2="45" stroke="#d3d3d3" stroke-width="0.048"/>
	<line id="_zxt6ilaf" x1="0" y1="46" x2="48" y2="46" stroke="#d3d3d3" stroke-width="0.048"/>
	<line id="_xmaypazn" x1="0" y1="47" x2="48" y2="47" stroke="#d3d3d3" stroke-width="0.048"/>
	<line id="_j2yizdeu" x1="0" y1="48" x2="48" y2="48" stroke="#d3d3d3" stroke-width="0.048"/>
	<line id="_ku0yclum" x1="24.0" y1="0" x2="24.0" y2="48" stroke="#999999" stroke-width="0.05"/>
	<line id="_ovw2hvfm" x1="17" y1="0" x2="17" y2="48" stroke="#999999" stroke-width="0.05"/>
	<line id="_bufpqqie" x1="31" y1="0" x2="31" y2="48" stroke="#999999" stroke-width="0.05"/>
	<line id="_bj9ebspx" x1="0" y1="24.0" x2="48" y2="24.0" stroke="#999999" stroke-width="0.05"/>
	<line id="_kira30kh" x1="0" y1="17" x2="48" y2="17" stroke="#999999" stroke-width="0.05"/>
	<line id="_seqv2tke" x1="0" y1="31" x2="48" y2="31" stroke="#999999" stroke-width="0.05"/>
	<line id="_yc021ndr" x1="0" y1="0" x2="48" y2="48" stroke="#999999" stroke-width="0.05"/>
	<line id="_dl0oma8n" x1="0" y1="48" x2="48" y2="0" stroke="#999999" stroke-width="0.05"/>
	<defs>
		<rect id="_qiwdvcr3" x="4.5" y="4.5" width="39" height="39" rx="3.0" ry="3.0" />
		<clipPath  id="_qiwdvcr3_clip"><use xlink:href="#_qiwdvcr3" x="0" y="0" width="100%" height="100%" /></clipPath>
	</defs>
	<use clip-path="url(#_qiwdvcr3_clip)" xlink:href="#_qiwdvcr3" x="0" y="0" width="100%" height="100%"
		style="fill:None;fill-opacity:0.1;stroke:#999999;stroke-width:0.1;stroke-opacity:1"/>
	<defs>
		<rect id="_4dmw7ox2" x="2.0" y="8.0" width="44" height="32" rx="3.0" ry="3.0" />
		<clipPath  id="_4dmw7ox2_clip"><use xlink:href="#_4dmw7ox2" x="0" y="0" width="100%" height="100%" /></clipPath>
	</defs>
	<use clip-path="url(#_4dmw7ox2_clip)" xlink:href="#_4dmw7ox2" x="0" y="0" width="100%" height="100%"
		style="fill:None;fill-opacity:0.1;stroke:#999999;stroke-width:0.1;stroke-opacity:1"/>
	<defs>
		<rect id="_iimuipuq" x="8.0" y="2.0" width="32" height="44" rx="3.0" ry="3.0" />
		<clipPath  id="_iimuipuq_clip"><use xlink:href="#_iimuipuq" x="0" y="0" width="100%" height="100%" /></clipPath>
	</defs>
	<use clip-path="url(#_iimuipuq_clip)" xlink:href="#_iimuipuq" x="0" y="0" width="100%" height="100%"
		style="fill:None;fill-opacity:0.1;stroke:#999999;stroke-width:0.1;stroke-opacity:1"/>
	<defs>
		<circle id="_um2inrhv" r="22" cx="24.0" cy="24.0" />
		<clipPath  id="_um2inrhv_clip"><use xlink:href="#_um2inrhv" x="0" y="0" width="100%" height="100%" /></clipPath>
	</defs>
	<use clip-path="url(#_um2inrhv_clip)" xlink:href="#_um2inrhv" x="0" y="0" width="100%" height="100%"
		style="fill:None;fill-opacity:0.1;stroke:#999999;stroke-width:0.1;stroke-opacity:1"/>
	<defs>
		<circle id="_t8kcmgyl" r="10" cx="24.0" cy="24.0" />
		<clipPath  id="_t8kcmgyl_clip"><use xlink:href="#_t8kcmgyl" x="0" y="0" width="100%" height="100%" /></clipPath>
	</defs>
	<use clip-path="url(#_t8kcmgyl_clip)" xlink:href="#_t8kcmgyl" x="0" y="0" width="100%" height="100%"
		style="fill:None;fill-opacity:0.1;stroke:#999999;stroke-width:0.1;stroke-opacity:1"/>
	<defs>
		<circle id="_lqhtgxy8" r="3.0" cx="7.5" cy="7.5" />
		<clipPath  id="_lqhtgxy8_clip"><use xlink:href="#_lqhtgxy8" x="0" y="0" width="100%" height="100%" /></clipPath>
	</defs>
	<use clip-path="url(#_lqhtgxy8_clip)" xlink:href="#_lqhtgxy8" x="0" y="0" width="100%" height="100%"
		style="fill:None;fill-opacity:0.1;stroke:#999999;stroke-width:0.1;stroke-opacity:1"/>
	<defs>
		<circle id="_s164tebr" r="3.0" cx="7.5" cy="40.5" />
		<clipPath  id="_s164tebr_clip"><use xlink:href="#_s164tebr" x="0" y="0" width="100%" height="100%" /></clipPath>
	</defs>
	<use clip-path="url(#_s164tebr_clip)" xlink:href="#_s164tebr" x="0" y="0" width="100%" height="100%"
		style="fill:None;fill-opacity:0.1;stroke:#999999;stroke-width:0.1;stroke-opacity:1"/>
	<defs>
		<circle id="_wdrkhvf9" r="3.0" cx="40.5" cy="7.5" />
		<clipPath  id="_wdrkhvf9_clip"><use xlink:href="#_wdrkhvf9" x="0" y="0" width="100%" height="100%" /></clipPath>
	</defs>
	<use clip-path="url(#_wdrkhvf9_clip)" xlink:href="#_wdrkhvf9" x="0" y="0" width="100%" height="100%"
		style="fill:None;fill-opacity:0.1;stroke:#999999;stroke-width:0.1;stroke-opacity:1"/>
	<defs>
		<circle id="_k5ky17up" r="3.0" cx="40.5" cy="40.5" />
		<clipPath  id="_k5ky17up_clip"><use xlink:href="#_k5ky17up" x="0" y="0" width="100%" height="100%" /></clipPath>
	</defs>
	<use clip-path="url(#_k5ky17up_clip)" xlink:href="#_k5ky17up" x="0" y="0" width="100%" height="100%"
		style="fill:None;fill-opacity:0.1;stroke:#999999;stroke-width:0.1;stroke-opacity:1"/>
	<line id="_rqk46lkd" x1="0" y1="0" x2="48" y2="0" stroke="#8d8d8d" stroke-width="0.1"/>
	<line id="_a6qapm6l" x1="0" y1="48" x2="48" y2="48" stroke="#8d8d8d" stroke-width="0.1"/>
	<line id="_hgnz3rlz" x1="0" y1="0" x2="0" y2="48" stroke="#8d8d8d" stroke-width="0.1"/>
	<line id="_yvev4mno" x1="48" y1="0" x2="48" y2="48" stroke="#8d8d8d" stroke-width="0.1"/>
</svg>