<svg viewBox="0 0 48 48" width="900" height="900"
xmlns="http://www.w3.org/2000/svg" xmlns:xlink="http://www.w3.org/1999/xlink"
stroke="#999999"
stroke-width="1"
fill-opacity="0.5">
	<rect id="_lexkjahe" x="0" y="0" width="48" height="48" rx="0" ry="0" stroke="None" stroke-width="1" fill="#efefef" />
	<line id="_u9u4swmt" x1="0" y1="0" x2="0" y2="48" stroke="#d3d3d3" stroke-width="0.048"/>
	<line id="_lhallgla" x1="1" y1="0" x2="1" y2="48" stroke="#d3d3d3" stroke-width="0.048"/>
	<line id="_ei4aurzk" x1="2" y1="0" x2="2" y2="48" stroke="#d3d3d3" stroke-width="0.048"/>
	<line id="_zcfmfh8c" x1="3" y1="0" x2="3" y2="48" stroke="#d3d3d3" stroke-width="0.048"/>
	<line id="_4jwyojsq" x1="4" y1="0" x2="4" y2="48" stroke="#d3d3d3" stroke-width="0.048"/>
	<line id="_lthuraib" x1="5" y1="0" x2="5" y2="48" stroke="#d3d3d3" stroke-width="0.048"/>
	<line id="_uxublfim" x1="6" y1="0" x2="6" y2="48" stroke="#d3d3d3" stroke-width="0.048"/>
	<line id="_dvqncswn" x1="7" y1="0" x2="7" y2="48" stroke="#d3d3d3" stroke-width="0.048"/>
	<line id="_ge0ilmqb" x1="8" y1="0" x2="8" y2="48" stroke="#d3d3d3" stroke-width="0.048"/>
	<line id="_0gcuq9cq" x1="9" y1="0" x2="9" y2="48" stroke="#d3d3d3" stroke-width="0.048"/>
	<line id="_kthutpee" x1="10" y1="0" x2="10" y2="48" stroke="#d3d3d3" stroke-width="0.048"/>
	<line id="_rjekr73f" x1="11" y1="0" x2="11" y2="48" stroke="#d3d3d3" stroke-width="0.048"/>
	<line id="_dwgngjjk" x1="12" y1="0" x2="12" y2="48" stroke="#d3d3d3" stroke-width="0.048"/>
	<line id="_tm8ay5i9" x1="13" y1="0" x2="13" y2="48" stroke="#d3d3d3" stroke-width="0.048"/>
	<line id="_bif1g5eg" x1="14" y1="0" x2="14" y2="48" stroke="#d3d3d3" stroke-width="0.048"/>
	<line id="_1bnkigoi" x1="15" y1="0" x2="15" y2="48" stroke="#d3d3d3" stroke-width="0.048"/>
	<line id="_4jjignhz" x1="16" y1="0" x2="16" y2="48" stroke="#d3d3d3" stroke-width="0.048"/>
	<line id="_s0klznvh" x1="17" y1="0" x2="17" y2="48" stroke="#d3d3d3" stroke-width="0.048"/>
	<line id="_rhmsegua" x1="18" y1="0" x2="18" y2="48" stroke="#d3d3d3" stroke-width="0.048"/>
	<line id="_blvfguaw" x1="19" y1="0" x2="19" y2="48" stroke="#d3d3d3" stroke-width="0.048"/>
	<line id="_n8yv1obd" x1="20" y1="0" x2="20" y2="48" stroke="#d3d3d3" stroke-width="0.048"/>
	<line id="_ezpmi9tg" x1="21" y1="0" x2="21" y2="48" stroke="#d3d3d3" stroke-width="0.048"/>
	<line id="_p9ymcknz" x1="22" y1="0" x2="22" y2="48" stroke="#d3d3d3" stroke-width="0.048"/>
	<line id="_q8ghdmve" x1="23" y1="0" x2="23" y2="48" stroke="#d3d3d3" stroke-width="0.048"/>
	<line id="_ckuk3jpk" x1="24" y1="0" x2="24" y2="48" stroke="#d3d3d3" stroke-width="0.048"/>
	<line id="_7f4akplr" x1="25" y1="0" x2="25" y2="48" stroke="#d3d3d3" stroke-width="0.048"/>
	<line id="_rxupzqiw" x1="26" y1="0" x2="26" y2="48" stroke="#d3d3d3" stroke-width="0.048"/>
	<line id="_ylcz4yj1" x1="27" y1="0" x2="27" y2="48" stroke="#d3d3d3" stroke-width="0.048"/>
	<line id="_i11gxc62" x1="28" y1="0" x2="28" y2="48" stroke="#d3d3d3" stroke-width="0.048"/>
	<line id="_mzo4ncc1" x1="29" y1="0" x2="29" y2="48" stroke="#d3d3d3" stroke-width="0.048"/>
	<line id="_ocdih5ch" x1="30" y1="0" x2="30" y2="48" stroke="#d3d3d3" stroke-width="0.048"/>
	<line id="_lihx1cud" x1="31" y1="0" x2="31" y2="48" stroke="#d3d3d3" stroke-width="0.048"/>
	<line id="_nvftewhq" x1="32" y1="0" x2="32" y2="48" stroke="#d3d3d3" stroke-width="0.048"/>
	<line id="_ckndhnhh" x1="33" y1="0" x2="33" y2="48" stroke="#d3d3d3" stroke-width="0.048"/>
	<line id="_eypvybvt" x1="34" y1="0" x2="34" y2="48" stroke="#d3d3d3" stroke-width="0.048"/>
	<line id="_xzsu2sly" x1="35" y1="0" x2="35" y2="48" stroke="#d3d3d3" stroke-width="0.048"/>
	<line id="_tkmzlijp" x1="36" y1="0" x2="36" y2="48" stroke="#d3d3d3" stroke-width="0.048"/>
	<line id="_hy2lpcgn" x1="37" y1="0" x2="37" y2="48" stroke="#d3d3d3" stroke-width="0.048"/>
	<line id="_s0iumo3w" x1="38" y1="0" x2="38" y2="48" stroke="#d3d3d3" stroke-width="0.048"/>
	<line id="_a9deddp4" x1="39" y1="0" x2="39" y2="48" stroke="#d3d3d3" stroke-width="0.048"/>
	<line id="_birgceuh" x1="40" y1="0" x2="40" y2="48" stroke="#d3d3d3" stroke-width="0.048"/>
	<line id="_fmwwf938" x1="41" y1="0" x2="41" y2="48" stroke="#d3d3d3" stroke-width="0.048"/>
	<line id="_m8p5g1z5" x1="42" y1="0" x2="42" y2="48" stroke="#d3d3d3" stroke-width="0.048"/>
	<line id="_xy7sjbiw" x1="43" y1="0" x2="43" y2="48" stroke="#d3d3d3" stroke-width="0.048"/>
	<line id="_ot1i0eae" x1="44" y1="0" x2="44" y2="48" stroke="#d3d3d3" stroke-width="0.048"/>
	<line id="_bkjcz6hf" x1="45" y1="0" x2="45" y2="48" stroke="#d3d3d3" stroke-width="0.048"/>
	<line id="_omdownva" x1="46" y1="0" x2="46" y2="48" stroke="#d3d3d3" stroke-width="0.048"/>
	<line id="_kzcjyzxu" x1="47" y1="0" x2="47" y2="48" stroke="#d3d3d3" stroke-width="0.048"/>
	<line id="_ipz7olbu" x1="48" y1="0" x2="48" y2="48" stroke="#d3d3d3" stroke-width="0.048"/>
	<line id="_lmi74vix" x1="0" y1="0" x2="48" y2="0" stroke="#d3d3d3" stroke-width="0.048"/>
	<line id="_taxhhnz1" x1="0" y1="1" x2="48" y2="1" stroke="#d3d3d3" stroke-width="0.048"/>
	<line id="_3vl1eawj" x1="0" y1="2" x2="48" y2="2" stroke="#d3d3d3" stroke-width="0.048"/>
	<line id="_deui43wv" x1="0" y1="3" x2="48" y2="3" stroke="#d3d3d3" stroke-width="0.048"/>
	<line id="_b2mqxnq1" x1="0" y1="4" x2="48" y2="4" stroke="#d3d3d3" stroke-width="0.048"/>
	<line id="_mkigixc6" x1="0" y1="5" x2="48" y2="5" stroke="#d3d3d3" stroke-width="0.048"/>
	<line id="_wjesei4w" x1="0" y1="6" x2="48" y2="6" stroke="#d3d3d3" stroke-width="0.048"/>
	<line id="_jq9prd8c" x1="0" y1="7" x2="48" y2="7" stroke="#d3d3d3" stroke-width="0.048"/>
	<line id="_enedacoh" x1="0" y1="8" x2="48" y2="8" stroke="#d3d3d3" stroke-width="0.048"/>
	<line id="_yygg4ffn" x1="0" y1="9" x2="48" y2="9" stroke="#d3d3d3" stroke-width="0.048"/>
	<line id="_1fv9nkqg" x1="0" y1="10" x2="48" y2="10" stroke="#d3d3d3" stroke-width="0.048"/>
	<line id="_q9lzpfz7" x1="0" y1="11" x2="48" y2="11" stroke="#d3d3d3" stroke-width="0.048"/>
	<line id="_nedhd8lq" x1="0" y1="12" x2="48" y2="12" stroke="#d3d3d3" stroke-width="0.048"/>
	<line id="_ac1wwgqj" x1="0" y1="13" x2="48" y2="13" stroke="#d3d3d3" stroke-width="0.048"/>
	<line id="_hcebmkhu" x1="0" y1="14" x2="48" y2="14" stroke="#d3d3d3" stroke-width="0.048"/>
	<line id="_c4hprwq1" x1="0" y1="15" x2="48" y2="15" stroke="#d3d3d3" stroke-width="0.048"/>
	<line id="_jcfcmp3n" x1="0" y1="16" x2="48" y2="16" stroke="#d3d3d3" stroke-width="0.048"/>
	<line id="_wzxvh5w8" x1="0" y1="17" x2="48" y2="17" stroke="#d3d3d3" stroke-width="0.048"/>
	<line id="_sqxqa2mx" x1="0" y1="18" x2="48" y2="18" stroke="#d3d3d3" stroke-width="0.048"/>
	<line id="_hsl3livp" x1="0" y1="19" x2="48" y2="19" stroke="#d3d3d3" stroke-width="0.048"/>
	<line id="_v2rhsslf" x1="0" y1="20" x2="48" y2="20" stroke="#d3d3d3" stroke-width="0.048"/>
	<line id="_anylnatg" x1="0" y1="21" x2="48" y2="21" stroke="#d3d3d3" stroke-width="0.048"/>
	<line id="_34csrqbw" x1="0" y1="22" x2="48" y2="22" stroke="#d3d3d3" stroke-width="0.048"/>
	<line id="_gs0oyomg" x1="0" y1="23" x2="48" y2="23" stroke="#d3d3d3" stroke-width="0.048"/>
	<line id="_t6uwkz2g" x1="0" y1="24" x2="48" y2="24" stroke="#d3d3d3" stroke-width="0.048"/>
	<line id="_0bwxnhse" x1="0" y1="25" x2="48" y2="25" stroke="#d3d3d3" stroke-width="0.048"/>
	<line id="_8ivntlux" x1="0" y1="26" x2="48" y2="26" stroke="#d3d3d3" stroke-width="0.048"/>
	<line id="_cnntfv0y" x1="0" y1="27" x2="48" y2="27" stroke="#d3d3d3" stroke-width="0.048"/>
	<line id="_azuou0rg" x1="0" y1="28" x2="48" y2="28" stroke="#d3d3d3" stroke-width="0.048"/>
	<line id="_un7fiona" x1="0" y1="29" x2="48" y2="29" stroke="#d3d3d3" stroke-width="0.048"/>
	<line id="_ssozbvjb" x1="0" y1="30" x2="48" y2="30" stroke="#d3d3d3" stroke-width="0.048"/>
	<line id="_6t85ex5m" x1="0" y1="31" x2="48" y2="31" stroke="#d3d3d3" stroke-width="0.048"/>
	<line id="_vwpwr8w0" x1="0" y1="32" x2="48" y2="32" stroke="#d3d3d3" stroke-width="0.048"/>
	<line id="_7xqe6jzd" x1="0" y1="33" x2="48" y2="33" stroke="#d3d3d3" stroke-width="0.048"/>
	<line id="_duipo3ml" x1="0" y1="34" x2="48" y2="34" stroke="#d3d3d3" stroke-width="0.048"/>
	<line id="_0xnnhauh" x1="0" y1="35" x2="48" y2="35" stroke="#d3d3d3" stroke-width="0.048"/>
	<line id="_7sa7rvkm" x1="0" y1="36" x2="48" y2="36" stroke="#d3d3d3" stroke-width="0.048"/>
	<line id="_4dfmjzrn" x1="0" y1="37" x2="48" y2="37" stroke="#d3d3d3" stroke-width="0.048"/>
	<line id="_s1o7z1pj" x1="0" y1="38" x2="48" y2="38" stroke="#d3d3d3" stroke-width="0.048"/>
	<line id="_9fv2b1t8" x1="0" y1="39" x2="48" y2="39" stroke="#d3d3d3" stroke-width="0.048"/>
	<line id="_mfi0d7rw" x1="0" y1="40" x2="48" y2="40" stroke="#d3d3d3" stroke-width="0.048"/>
	<line id="_4tsivefc" x1="0" y1="41" x2="48" y2="41" stroke="#d3d3d3" stroke-width="0.048"/>
	<line id="_hftirjmz" x1="0" y1="42" x2="48" y2="42" stroke="#d3d3d3" stroke-width="0.048"/>
	<line id="_atd4kn3e" x1="0" y1="43" x2="48" y2="43" stroke="#d3d3d3" stroke-width="0.048"/>
	<line id="_qqrb607c" x1="0" y1="44" x2="48" y2="44" stroke="#d3d3d3" stroke-width="0.048"/>
	<line id="_d13konqx" x1="0" y1="45" x2="48" y2="45" stroke="#d3d3d3" stroke-width="0.048"/>
	<line id="_tlyys5wp" x1="0" y1="46" x2="48" y2="46" stroke="#d3d3d3" stroke-width="0.048"/>
	<line id="_hinjk9yp" x1="0" y1="47" x2="48" y2="47" stroke="#d3d3d3" stroke-width="0.048"/>
	<line id="_drfngjal" x1="0" y1="48" x2="48" y2="48" stroke="#d3d3d3" stroke-width="0.048"/>
	<line id="_yxcxzsnp" x1="24.0" y1="0" x2="24.0" y2="48" stroke="#999999" stroke-width="0.05"/>
	<line id="_ugf2xwhh" x1="17" y1="0" x2="17" y2="48" stroke="#999999" stroke-width="0.05"/>
	<line id="_j5mlx1ts" x1="31" y1="0" x2="31" y2="48" stroke="#999999" stroke-width="0.05"/>
	<line id="_zw4yn4eq" x1="0" y1="24.0" x2="48" y2="24.0" stroke="#999999" stroke-width="0.05"/>
	<line id="_rxgh1jmp" x1="0" y1="17" x2="48" y2="17" stroke="#999999" stroke-width="0.05"/>
	<line id="_w4xq1cnf" x1="0" y1="31" x2="48" y2="31" stroke="#999999" stroke-width="0.05"/>
	<line id="_fwlbti6b" x1="0" y1="0" x2="48" y2="48" stroke="#999999" stroke-width="0.05"/>
	<line id="_ixr3wtyo" x1="0" y1="48" x2="48" y2="0" stroke="#999999" stroke-width="0.05"/>
	<defs>
		<rect id="_wiub8ywj" x="4.5" y="4.5" width="39" height="39" rx="3.0" ry="3.0" />
		<clipPath  id="_wiub8ywj_clip"><use xlink:href="#_wiub8ywj" x="0" y="0" width="100%" height="100%" /></clipPath>
	</defs>
	<use clip-path="url(#_wiub8ywj_clip)" xlink:href="#_wiub8ywj" x="0" y="0" width="100%" height="100%"
		style="fill:None;fill-opacity:0.1;stroke:#999999;stroke-width:0.1;stroke-opacity:1"/>
	<defs>
		<rect id="_ue6tlhep" x="2.0" y="8.0" width="44" height="32" rx="3.0" ry="3.0" />
		<clipPath  id="_ue6tlhep_clip"><use xlink:href="#_ue6tlhep" x="0" y="0" width="100%" height="100%" /></clipPath>
	</defs>
	<use clip-path="url(#_ue6tlhep_clip)" xlink:href="#_ue6tlhep" x="0" y="0" width="100%" height="100%"
		style="fill:None;fill-opacity:0.1;stroke:#999999;stroke-width:0.1;stroke-opacity:1"/>
	<defs>
		<rect id="_bjunz5ow" x="8.0" y="2.0" width="32" height="44" rx="3.0" ry="3.0" />
		<clipPath  id="_bjunz5ow_clip"><use xlink:href="#_bjunz5ow" x="0" y="0" width="100%" height="100%" /></clipPath>
	</defs>
	<use clip-path="url(#_bjunz5ow_clip)" xlink:href="#_bjunz5ow" x="0" y="0" width="100%" height="100%"
		style="fill:None;fill-opacity:0.1;stroke:#999999;stroke-width:0.1;stroke-opacity:1"/>
	<defs>
		<circle id="_ncomfn4d" r="22" cx="24.0" cy="24.0" />
		<clipPath  id="_ncomfn4d_clip"><use xlink:href="#_ncomfn4d" x="0" y="0" width="100%" height="100%" /></clipPath>
	</defs>
	<use clip-path="url(#_ncomfn4d_clip)" xlink:href="#_ncomfn4d" x="0" y="0" width="100%" height="100%"
		style="fill:None;fill-opacity:0.1;stroke:#999999;stroke-width:0.1;stroke-opacity:1"/>
	<defs>
		<circle id="_mxldbn3e" r="10" cx="24.0" cy="24.0" />
		<clipPath  id="_mxldbn3e_clip"><use xlink:href="#_mxldbn3e" x="0" y="0" width="100%" height="100%" /></clipPath>
	</defs>
	<use clip-path="url(#_mxldbn3e_clip)" xlink:href="#_mxldbn3e" x="0" y="0" width="100%" height="100%"
		style="fill:None;fill-opacity:0.1;stroke:#999999;stroke-width:0.1;stroke-opacity:1"/>
	<defs>
		<circle id="_wgsngsyw" r="3.0" cx="7.5" cy="7.5" />
		<clipPath  id="_wgsngsyw_clip"><use xlink:href="#_wgsngsyw" x="0" y="0" width="100%" height="100%" /></clipPath>
	</defs>
	<use clip-path="url(#_wgsngsyw_clip)" xlink:href="#_wgsngsyw" x="0" y="0" width="100%" height="100%"
		style="fill:None;fill-opacity:0.1;stroke:#999999;stroke-width:0.1;stroke-opacity:1"/>
	<defs>
		<circle id="_fzvukgyc" r="3.0" cx="7.5" cy="40.5" />
		<clipPath  id="_fzvukgyc_clip"><use xlink:href="#_fzvukgyc" x="0" y="0" width="100%" height="100%" /></clipPath>
	</defs>
	<use clip-path="url(#_fzvukgyc_clip)" xlink:href="#_fzvukgyc" x="0" y="0" width="100%" height="100%"
		style="fill:None;fill-opacity:0.1;stroke:#999999;stroke-width:0.1;stroke-opacity:1"/>
	<defs>
		<circle id="_8bl2kofp" r="3.0" cx="40.5" cy="7.5" />
		<clipPath  id="_8bl2kofp_clip"><use xlink:href="#_8bl2kofp" x="0" y="0" width="100%" height="100%" /></clipPath>
	</defs>
	<use clip-path="url(#_8bl2kofp_clip)" xlink:href="#_8bl2kofp" x="0" y="0" width="100%" height="100%"
		style="fill:None;fill-opacity:0.1;stroke:#999999;stroke-width:0.1;stroke-opacity:1"/>
	<defs>
		<circle id="_lndtqnjp" r="3.0" cx="40.5" cy="40.5" />
		<clipPath  id="_lndtqnjp_clip"><use xlink:href="#_lndtqnjp" x="0" y="0" width="100%" height="100%" /></clipPath>
	</defs>
	<use clip-path="url(#_lndtqnjp_clip)" xlink:href="#_lndtqnjp" x="0" y="0" width="100%" height="100%"
		style="fill:None;fill-opacity:0.1;stroke:#999999;stroke-width:0.1;stroke-opacity:1"/>
	<rect x="0" y="0" width="100%" height="100%" stroke="None" fill="#fefefe" />
	<polygon stroke="None" fill="#CE1126" points="2,17 9,39 31,46 2,46" />
	<polygon stroke="None" fill="#002654" points="2,2 46,2 46,46 17,31" />
	<line id="_mynawfqw" x1="0" y1="0" x2="48" y2="0" stroke="#8d8d8d" stroke-width="0.1"/>
	<line id="_f0c6mbii" x1="0" y1="48" x2="48" y2="48" stroke="#8d8d8d" stroke-width="0.1"/>
	<line id="_cspygohd" x1="0" y1="0" x2="0" y2="48" stroke="#8d8d8d" stroke-width="0.1"/>
	<line id="_yetmrbwz" x1="48" y1="0" x2="48" y2="48" stroke="#8d8d8d" stroke-width="0.1"/>
</svg>